<?xml version="1.0" encoding="UTF-8"?><!DOCTYPE svg PUBLIC "-//W3C//DTD SVG 1.1//EN" "http://www.w3.org/Graphics/SVG/1.1/DTD/svg11.dtd"><svg xmlns="http://www.w3.org/2000/svg" xmlns:xlink="http://www.w3.org/1999/xlink"><symbol id="close-icon" viewBox="0 0 17 17">
<path fill-rule="evenodd" clip-rule="evenodd" d="M0.146522 0.853553C-0.04874 0.658291 -0.04874 0.341709 0.146522 0.146447C0.341784 -0.0488155 0.658367 -0.0488156 0.853629 0.146447L8.27821 7.57103L15.7028 0.14645C15.8981 -0.0488124 16.2146 -0.0488125 16.4099 0.14645C16.6052 0.341712 16.6052 0.658294 16.4099 0.853556L8.98532 8.27814L16.41 15.7028C16.6052 15.8981 16.6052 16.2146 16.41 16.4099C16.2147 16.6052 15.8981 16.6052 15.7029 16.4099L8.27821 8.98525L0.853553 16.4099C0.658291 16.6052 0.341709 16.6052 0.146447 16.4099C-0.0488155 16.2146 -0.0488156 15.8981 0.146447 15.7028L7.57111 8.27814L0.146522 0.853553Z" fill="white"/>
</symbol><symbol id="facebook" viewBox="0 0 27 27">
  <path fill-rule="evenodd" clip-rule="evenodd" d="M27 13.5001C27 6.04468 20.9562 6.10352e-05 13.5 6.10352e-05C6.04379 6.10352e-05 0 6.04468 0 13.5001C0 20.9563 6.04369 27.0001 13.5 27.0001C20.9562 27.0001 27 20.9564 27 13.5001ZM16.8836 9.29401H15.1437C14.6754 9.29401 14.3464 9.69059 14.3464 10.1851V10.9604H16.8312L16.4288 13.4773H14.3455V20.2239H11.8025V13.4773H10.115V10.9604H11.8025V9.67706H11.8075C11.8523 8.21399 12.3602 6.82098 14.8383 6.73321V6.72394H16.8836V9.29401Z"/>
</symbol><symbol id="hired" viewBox="0 0 35 35">
<path d="M31.2638 27.8931C31.639 27.3746 31.8609 26.7384 31.8609 26.0511V21.9434C31.8609 21.5658 31.5548 21.2598 31.1773 21.2598H28.1222C26.7099 21.2598 25.5609 22.4087 25.5609 23.8211V26.0511C25.5609 26.738 25.7826 27.3738 26.1573 27.8921C25.69 27.9679 25.2404 28.1176 24.8211 28.3367C23.8713 26.9195 22.3152 25.9421 20.5271 25.7772C20.5201 25.7752 20.513 25.7738 20.506 25.7721C21.1457 25.0577 21.5357 24.1151 21.5357 23.0829V17.5C21.5357 17.1225 21.2296 16.8164 20.8521 16.8164H16.6999C14.9157 16.8164 13.4643 18.2679 13.4643 20.052V23.0828C13.4643 24.1151 13.8543 25.0576 14.494 25.772C14.487 25.7737 14.4799 25.7752 14.4729 25.7772C12.6846 25.942 11.1284 26.9196 10.1787 28.337C9.75926 28.1179 9.30959 27.9681 8.84249 27.8923C9.21724 27.374 9.43906 26.7381 9.43906 26.0511V21.9434C9.43906 21.5658 9.13295 21.2598 8.75547 21.2598H5.70035C4.28805 21.2598 3.13906 22.4087 3.13906 23.8211V26.0511C3.13906 26.7385 3.36103 27.3746 3.73618 27.8931C1.62025 28.2389 0 30.0791 0 32.2913V34.3164C0 34.694 0.306113 35 0.683594 35H34.3164C34.6939 35 35 34.694 35 34.3164V32.2913C35 30.0791 33.3797 28.2389 31.2638 27.8931ZM4.50625 23.8211C4.50625 23.1626 5.04191 22.627 5.70035 22.627H8.07188V23.4595C8.07188 23.8677 7.73979 24.1998 7.33161 24.1998H4.50625V23.8211ZM4.50625 25.567H7.33161C7.59206 25.567 7.84144 25.5192 8.07188 25.4324V26.0511C8.07188 27.0341 7.27214 27.8339 6.28906 27.8339C5.30599 27.8339 4.50625 27.0341 4.50625 26.0511V25.567ZM6.72978 29.2011L6.28906 29.6418L5.84835 29.2011H6.72978ZM9.19789 31.564V33.6328H1.36719V32.2913C1.36719 30.758 2.48985 29.4826 3.95616 29.2424L5.80569 31.0919C5.93394 31.2201 6.10777 31.2921 6.28906 31.2921C6.47035 31.2921 6.64419 31.2201 6.77243 31.0919L8.62251 29.2417C8.94927 29.2949 9.26352 29.4003 9.55637 29.5544C9.32477 30.1809 9.19789 30.8579 9.19789 31.564ZM17.5001 25.7515C16.0286 25.7515 14.8315 24.5543 14.8315 23.0829V22.1794H18.917C19.37 22.1794 19.7965 22.0637 20.1686 21.8604V23.0829C20.1686 24.5543 18.9715 25.7515 17.5001 25.7515ZM18.6916 27.1186L17.5 28.3102L16.3084 27.1186H18.6916ZM14.8314 20.052H14.8315C14.8315 19.0217 15.6696 18.1836 16.6999 18.1836H20.1685V19.5606C20.1685 20.2508 19.607 20.8123 18.9169 20.8123H14.8314V20.052ZM24.4349 33.6328H23.1055H11.8945H10.5651V32.2656H15.0163C15.3938 32.2656 15.6999 31.9596 15.6999 31.582C15.6999 31.2045 15.3938 30.8984 15.0163 30.8984H10.6151C10.9081 28.9556 12.4633 27.422 14.4158 27.1595L17.0166 29.7603C17.1501 29.8938 17.3251 29.9605 17.5 29.9605C17.6749 29.9605 17.8499 29.8938 17.9834 29.7603L20.5842 27.1595C22.755 27.4513 24.4349 29.3146 24.4349 31.564V33.6328ZM26.9281 23.8211C26.9281 23.1626 27.4638 22.627 28.1222 22.627H30.4937V23.4595C30.4937 23.8677 30.1617 24.1998 29.7535 24.1998H26.9281V23.8211ZM26.9281 25.567H29.7535C30.0139 25.567 30.2633 25.5192 30.4937 25.4324V26.0511C30.4937 27.0341 29.694 27.8339 28.7109 27.8339C27.7279 27.8339 26.9281 27.0341 26.9281 26.0511V25.567ZM29.1516 29.2011L28.7109 29.6418L28.2702 29.2011H29.1516ZM25.802 33.6328V31.564C25.802 30.8578 25.6752 30.1809 25.4435 29.5542C25.7362 29.4 26.0504 29.2947 26.3772 29.2416L28.2275 31.0919C28.3557 31.2201 28.5296 31.2921 28.7109 31.2921C28.8922 31.2921 29.066 31.2201 29.1942 31.0919L31.0438 29.2424C32.5101 29.4826 33.6327 30.758 33.6327 32.2913V33.6328H25.802Z"/>
<path d="M20.869 4.46644C20.602 4.1995 20.1693 4.1995 19.9022 4.46644L16.5478 7.82091L15.0977 6.3708C14.8307 6.10379 14.398 6.10379 14.131 6.37073C13.8641 6.63767 13.8641 7.07052 14.131 7.33754L16.0645 9.27101C16.1927 9.39919 16.3665 9.47124 16.5478 9.47124C16.7291 9.47124 16.903 9.39919 17.0312 9.27101L20.869 5.43318C21.136 5.16624 21.136 4.73339 20.869 4.46644Z"/>
<path d="M20.2951 0.592753C19.9504 0.439013 19.5462 0.593847 19.3923 0.938651C19.2385 1.28346 19.3934 1.68766 19.7382 1.84141C21.7206 2.7255 23.0015 4.69883 23.0015 6.86869C23.0015 9.90221 20.5335 12.3702 17.5 12.3702C14.4665 12.3702 11.9985 9.90221 11.9985 6.86869C11.9985 4.71004 13.2702 2.74081 15.2383 1.85193C15.5823 1.69655 15.7353 1.29159 15.5799 0.947538C15.4245 0.603417 15.0193 0.450497 14.6755 0.605878C12.2189 1.71549 10.6314 4.17376 10.6314 6.86862C10.6313 10.6561 13.7126 13.7374 17.5 13.7374C21.2874 13.7374 24.3687 10.6561 24.3687 6.86869C24.3687 4.15981 22.7697 1.69635 20.2951 0.592753Z"/>
<path d="M17.5245 0H17.5C17.1225 0 16.8164 0.306045 16.8164 0.683594C16.8164 1.06114 17.1225 1.36719 17.5 1.36719H17.518C17.5191 1.36719 17.5202 1.36719 17.5213 1.36719C17.8974 1.36719 18.2031 1.06326 18.2049 0.686807C18.2066 0.309258 17.902 0.00177734 17.5245 0Z"/>
<path d="M17.9832 31.0987C17.8562 30.9716 17.6798 30.8984 17.5 30.8984C17.3202 30.8984 17.1438 30.9716 17.0167 31.0987C16.8896 31.2259 16.8164 31.4022 16.8164 31.582C16.8164 31.7618 16.8895 31.9382 17.0167 32.0653C17.1439 32.1925 17.3202 32.2656 17.5 32.2656C17.6798 32.2656 17.8562 32.1925 17.9832 32.0653C18.1104 31.9382 18.1836 31.7618 18.1836 31.582C18.1836 31.4022 18.1104 31.2259 17.9832 31.0987Z"/>
</symbol><symbol id="logo" viewBox="0 0 52 52">
<path d="M32.0668 13.8665C33.1952 13.8665 34.1485 14.5936 34.5073 15.5998H43.4929C43.8517 14.5936 44.805 13.8665 45.9334 13.8665C47.3669 13.8665 48.5334 15.033 48.5334 16.4664C48.5334 17.8999 47.3669 19.0664 45.9334 19.0664C44.805 19.0664 43.8517 18.3392 43.4929 17.3331H34.5064C34.1476 18.3392 33.1943 19.0664 32.0659 19.0664C30.6324 19.0664 29.4659 17.8999 29.4659 16.4664C29.4659 15.033 30.6333 13.8665 32.0668 13.8665ZM45.9334 17.3331C46.411 17.3331 46.8001 16.9448 46.8001 16.4664C46.8001 15.988 46.411 15.5998 45.9334 15.5998C45.4559 15.5998 45.0668 15.988 45.0668 16.4664C45.0668 16.9448 45.4559 17.3331 45.9334 17.3331ZM32.0668 17.3331C32.5443 17.3331 32.9334 16.9448 32.9334 16.4664C32.9334 15.988 32.5443 15.5998 32.0668 15.5998C31.5892 15.5998 31.2001 15.988 31.2001 16.4664C31.2001 16.9448 31.5892 17.3331 32.0668 17.3331Z" fill="#00B2FF"/>
<path d="M25.1333 19.2259V13.8665C25.1333 13.636 25.2243 13.4158 25.3872 13.2538L28.8539 9.78716C29.0159 9.62423 29.2369 9.53323 29.4666 9.53323H32.2261C32.5849 8.52705 33.5382 7.79993 34.6666 7.79993C36.1001 7.79993 37.2666 8.96644 37.2666 10.3999C37.2666 11.8333 36.1001 12.9998 34.6666 12.9998C33.5382 12.9998 32.5849 12.2727 32.2261 11.2665H29.8254L26.8666 14.2253V19.2259C27.8728 19.5847 28.5999 20.538 28.5999 21.6664C28.5999 23.0998 27.4334 24.2663 25.9999 24.2663C24.5665 24.2663 23.3999 23.0998 23.3999 21.6664C23.3999 20.538 24.1271 19.5847 25.1333 19.2259ZM34.6666 11.2665C35.1441 11.2665 35.5333 10.8783 35.5333 10.3999C35.5333 9.92149 35.1441 9.53323 34.6666 9.53323C34.1891 9.53323 33.7999 9.92149 33.7999 10.3999C33.7999 10.8783 34.1891 11.2665 34.6666 11.2665ZM25.9999 22.533C26.4775 22.533 26.8666 22.1448 26.8666 21.6664C26.8666 21.188 26.4775 20.7997 25.9999 20.7997C25.5224 20.7997 25.1333 21.188 25.1333 21.6664C25.1333 22.1448 25.5224 22.533 25.9999 22.533Z" fill="#00B2FF"/>
<path d="M9.53333 22.533C9.93373 22.533 10.3081 22.6309 10.647 22.7938L12.1333 21.3075V12.9998C12.1333 12.7693 12.2243 12.5491 12.3873 12.3871L21.0609 3.7136C20.8979 3.37474 20.8 3.00035 20.8 2.59996C20.8 1.16651 21.9665 0 23.4 0C24.8335 0 26 1.16651 26 2.59996C26 4.0334 24.8335 5.19991 23.4 5.19991C22.9996 5.19991 22.6252 5.10198 22.2863 4.93905L13.8667 13.3586V21.6663C13.8667 21.8968 13.7757 22.117 13.6127 22.279L11.8725 24.0193C12.0354 24.3581 12.1333 24.7325 12.1333 25.1329C12.1333 26.5664 10.9668 27.7329 9.53333 27.7329C8.09986 27.7329 6.93333 26.5664 6.93333 25.1329C6.93333 23.6995 8.09986 22.533 9.53333 22.533ZM23.4 3.46661C23.8775 3.46661 24.2667 3.07835 24.2667 2.59996C24.2667 2.12156 23.8775 1.7333 23.4 1.7333C22.9225 1.7333 22.5333 2.12156 22.5333 2.59996C22.5333 3.07835 22.9225 3.46661 23.4 3.46661ZM9.53333 25.9996C10.0109 25.9996 10.4 25.6113 10.4 25.1329C10.4 24.6545 10.0109 24.2663 9.53333 24.2663C9.0558 24.2663 8.66667 24.6545 8.66667 25.1329C8.66667 25.6113 9.0558 25.9996 9.53333 25.9996Z" fill="#00B2FF"/>
<path d="M1.73328 12.2926V8.66652C1.73328 8.43599 1.82428 8.21586 1.98722 8.0538L8.05388 1.98723C8.21595 1.8243 8.43695 1.7333 8.66662 1.7333H13.1594C13.5182 0.727121 14.4716 0 15.6 0C17.0334 0 18.2 1.16651 18.2 2.59996C18.2 4.0334 17.0334 5.19991 15.6 5.19991C14.4716 5.19991 13.5182 4.47279 13.1594 3.46661H9.02542L3.46662 9.02532V12.2926C4.47282 12.6514 5.19995 13.6047 5.19995 14.7331C5.19995 16.1665 4.03342 17.333 2.59995 17.333C1.16648 17.333 -4.95911e-05 16.1665 -4.95911e-05 14.7331C-4.95911e-05 13.6047 0.727085 12.6514 1.73328 12.2926ZM15.6 3.46661C16.0775 3.46661 16.4666 3.07835 16.4666 2.59996C16.4666 2.12156 16.0775 1.7333 15.6 1.7333C15.1224 1.7333 14.7333 2.12156 14.7333 2.59996C14.7333 3.07835 15.1224 3.46661 15.6 3.46661ZM2.59995 15.5997C3.07748 15.5997 3.46662 15.2115 3.46662 14.7331C3.46662 14.2547 3.07748 13.8664 2.59995 13.8664C2.12242 13.8664 1.73328 14.2547 1.73328 14.7331C1.73328 15.2115 2.12242 15.5997 2.59995 15.5997Z" fill="#00B2FF"/>
<path d="M13.8658 46.9595V34.5066C12.8604 34.1478 12.1333 33.1945 12.1333 32.0661C12.1333 30.6327 13.2998 29.4661 14.7333 29.4661C15.8617 29.4661 16.815 30.1933 17.1738 31.1995H26.1594C26.5182 30.1933 27.4716 29.4661 28.6 29.4661C29.7284 29.4661 30.6817 30.1933 31.0405 31.1995H36.0412L39.2608 27.9798C39.0979 27.641 39 27.2666 39 26.8662C39 25.4327 40.1665 24.2662 41.6 24.2662C43.0334 24.2662 44.2 25.4327 44.2 26.8662C44.2 28.2996 43.0334 29.4661 41.6 29.4661C41.1996 29.4661 40.8252 29.3682 40.4863 29.2053L37.0127 32.6788C36.8506 32.8418 36.6296 32.9328 36.4 32.9328H31.0405C30.6817 33.9389 29.7284 34.6661 28.6 34.6661C27.4716 34.6661 26.5182 33.9389 26.1594 32.9328H17.173C16.9112 33.6668 16.3332 34.2449 15.5991 34.5066V46.9595C16.6053 47.3183 17.3324 48.2716 17.3324 49.4C17.3324 50.8335 16.1659 52 14.7324 52C13.299 52 12.1324 50.8335 12.1324 49.4C12.1324 48.2716 12.8596 47.3183 13.8658 46.9595ZM41.6 27.7328C42.0775 27.7328 42.4666 27.3446 42.4666 26.8662C42.4666 26.3878 42.0775 25.9995 41.6 25.9995C41.1224 25.9995 40.7333 26.3878 40.7333 26.8662C40.7333 27.3446 41.1224 27.7328 41.6 27.7328ZM28.6 32.9328C29.0775 32.9328 29.4666 32.5445 29.4666 32.0661C29.4666 31.5877 29.0775 31.1995 28.6 31.1995C28.1224 31.1995 27.7333 31.5877 27.7333 32.0661C27.7333 32.5445 28.1224 32.9328 28.6 32.9328ZM14.7333 50.2658C15.2108 50.2658 15.6 49.8775 15.6 49.3991C15.6 48.9208 15.2108 48.5325 14.7333 48.5325C14.2558 48.5325 13.8666 48.9208 13.8666 49.3991C13.8666 49.8775 14.2558 50.2658 14.7333 50.2658ZM14.7333 32.9328C15.2108 32.9328 15.6 32.5445 15.6 32.0661C15.6 31.5877 15.2108 31.1995 14.7333 31.1995C14.2558 31.1995 13.8666 31.5877 13.8666 32.0661C13.8666 32.5445 14.2558 32.9328 14.7333 32.9328Z" fill="#00B2FF"/>
<path d="M18.2 17.4925V14.7331C18.2 14.5026 18.291 14.2824 18.4539 14.1204L28.8609 3.7136C28.6979 3.37474 28.6 3.00035 28.6 2.59996C28.6 1.16651 29.7665 0 31.2 0C32.3284 0 33.2817 0.727121 33.6405 1.7333H37.2667C37.7451 1.7333 38.1333 2.1207 38.1333 2.59996V4.84112L41.353 8.06073C41.6919 7.8978 42.0663 7.79987 42.4667 7.79987C43.9001 7.79987 45.0667 8.96638 45.0667 10.3998C45.0667 11.8333 43.9001 12.9998 42.4667 12.9998C41.0332 12.9998 39.8667 11.8333 39.8667 10.3998C39.8667 9.99943 39.9646 9.62504 40.1275 9.28618L36.6539 5.81264C36.491 5.65057 36.4 5.43044 36.4 5.19991V3.46661H33.6405C33.2817 4.47279 32.3284 5.19991 31.2 5.19991C30.7996 5.19991 30.4252 5.10198 30.0863 4.93905L19.9333 15.0919V17.4925C20.9395 17.8513 21.6667 18.8046 21.6667 19.933C21.6667 21.3664 20.5001 22.533 19.0667 22.533C17.6332 22.533 16.4667 21.3664 16.4667 19.933C16.4667 18.8046 17.1938 17.8513 18.2 17.4925ZM42.4667 11.2665C42.9442 11.2665 43.3333 10.8782 43.3333 10.3998C43.3333 9.92143 42.9442 9.53317 42.4667 9.53317C41.9891 9.53317 41.6 9.92143 41.6 10.3998C41.6 10.8782 41.9891 11.2665 42.4667 11.2665ZM31.2 3.46661C31.6775 3.46661 32.0667 3.07835 32.0667 2.59996C32.0667 2.12156 31.6775 1.7333 31.2 1.7333C30.7225 1.7333 30.3333 2.12156 30.3333 2.59996C30.3333 3.07835 30.7225 3.46661 31.2 3.46661ZM19.0667 20.7997C19.5442 20.7997 19.9333 20.4114 19.9333 19.933C19.9333 19.4546 19.5442 19.0663 19.0667 19.0663C18.5891 19.0663 18.2 19.4546 18.2 19.933C18.2 20.4114 18.5891 20.7997 19.0667 20.7997Z" fill="#00B2FF"/>
<path d="M20.8 24.2663C21.9284 24.2663 22.8817 24.9934 23.2405 25.9996H33.4412L38.3873 21.0536C38.5493 20.8906 38.7703 20.7997 39 20.7997H48.1745L50.2667 18.7076V11.6253L43.5803 4.93905C43.2415 5.10198 42.8671 5.19991 42.4667 5.19991C41.0332 5.19991 39.8667 4.0334 39.8667 2.59996C39.8667 1.16651 41.0332 0 42.4667 0C43.9001 0 45.0667 1.16651 45.0667 2.59996C45.0667 3.00035 44.9687 3.37474 44.8058 3.7136L51.7461 10.6538C51.909 10.8158 52 11.0359 52 11.2665V19.0663C52 19.2969 51.909 19.517 51.7461 19.6791L49.1461 22.279C48.984 22.442 48.763 22.533 48.5333 22.533H39.3588L34.4127 27.4789C34.2507 27.6419 34.0297 27.7329 33.8 27.7329H23.2405C22.8817 28.7391 21.9284 29.4662 20.8 29.4662C19.3665 29.4662 18.2 28.2997 18.2 26.8662C18.2 25.4328 19.3665 24.2663 20.8 24.2663ZM42.4667 1.7333C41.9891 1.7333 41.6 2.12156 41.6 2.59996C41.6 3.07835 41.9891 3.46661 42.4667 3.46661C42.9442 3.46661 43.3333 3.07835 43.3333 2.59996C43.3333 2.12156 42.9442 1.7333 42.4667 1.7333ZM20.8 27.7329C21.2775 27.7329 21.6667 27.3446 21.6667 26.8662C21.6667 26.3878 21.2775 25.9996 20.8 25.9996C20.3225 25.9996 19.9333 26.3878 19.9333 26.8662C19.9333 27.3446 20.3225 27.7329 20.8 27.7329Z" fill="#00B2FF"/>
<path d="M2.59997 20.7997C3.00037 20.7997 3.37477 20.8976 3.71363 21.0606L6.9333 17.841V12.8404C5.9271 12.4816 5.19997 11.5283 5.19997 10.3999C5.19997 8.96644 6.3665 7.79993 7.79997 7.79993C9.23343 7.79993 10.4 8.96644 10.4 10.3999C10.4 11.5283 9.67283 12.4816 8.66663 12.8404V18.1998C8.66663 18.4303 8.57563 18.6504 8.4127 18.8125L4.9391 22.286C5.10204 22.6249 5.19997 22.9993 5.19997 23.3997C5.19997 24.528 4.47283 25.4814 3.46663 25.8402V26.5075L10.146 33.1868C10.309 33.3488 10.4 33.569 10.4 33.7995V34.8256C11.4062 35.1844 12.1333 36.1377 12.1333 37.2661C12.1333 38.3945 11.4062 39.3478 10.4 39.7066V41.7597C11.4062 42.1185 12.1333 43.0718 12.1333 44.2002C12.1333 45.6336 10.9668 46.8001 9.5333 46.8001C8.09983 46.8001 6.9333 45.6336 6.9333 44.2002C6.9333 43.0718 7.66043 42.1185 8.66663 41.7597V39.7066C7.66043 39.3478 6.9333 38.3945 6.9333 37.2661C6.9333 36.1377 7.66043 35.1844 8.66663 34.8256V34.1583L1.98723 27.479C1.8243 27.3169 1.7333 27.0968 1.7333 26.8663V25.8402C0.7271 25.4814 -3.24249e-05 24.528 -3.24249e-05 23.3997C-3.24249e-05 21.9662 1.1665 20.7997 2.59997 20.7997ZM7.79997 11.2665C8.2775 11.2665 8.66663 10.8783 8.66663 10.3999C8.66663 9.92149 8.2775 9.53323 7.79997 9.53323C7.32243 9.53323 6.9333 9.92149 6.9333 10.3999C6.9333 10.8783 7.32243 11.2665 7.79997 11.2665ZM9.5333 45.066C10.0108 45.066 10.4 44.6777 10.4 44.1993C10.4 43.7209 10.0108 43.3327 9.5333 43.3327C9.05577 43.3327 8.66663 43.7209 8.66663 44.1993C8.66663 44.6777 9.05577 45.066 9.5333 45.066ZM9.5333 38.1328C10.0108 38.1328 10.4 37.7445 10.4 37.2661C10.4 36.7877 10.0108 36.3995 9.5333 36.3995C9.05577 36.3995 8.66663 36.7877 8.66663 37.2661C8.66663 37.7445 9.05577 38.1328 9.5333 38.1328ZM2.59997 24.2663C3.0775 24.2663 3.46663 23.8781 3.46663 23.3997C3.46663 22.9213 3.0775 22.533 2.59997 22.533C2.12243 22.533 1.7333 22.9213 1.7333 23.3997C1.7333 23.8781 2.12243 24.2663 2.59997 24.2663Z" fill="#00B2FF"/>
</symbol><symbol id="mail" viewBox="0 0 19 14">
<path d="M16.6805 0H2.3234C1.0418 0 0 1.0087 0 2.24959V11.7504C0 12.9913 1.0418 14 2.3234 14H16.6766C17.9582 14 19 12.9913 19 11.7504V2.2534C19.0039 1.01251 17.9621 0 16.6805 0ZM17.9425 11.7504C17.9425 12.4241 17.3764 12.9723 16.6805 12.9723H2.3234C1.62756 12.9723 1.06145 12.4241 1.06145 11.7504V2.2534C1.06145 1.57966 1.62756 1.03154 2.3234 1.03154H16.6766C17.3724 1.03154 17.9385 1.57966 17.9385 2.2534V11.7504H17.9425Z"/>
<path d="M11.9826 6.88195L16.6294 2.84715C16.8456 2.65683 16.8653 2.33328 16.6687 2.12012C16.4722 1.91077 16.138 1.89174 15.9179 2.08206L9.50984 7.65085L8.25968 6.56982C8.25575 6.56602 8.25182 6.56221 8.25182 6.5584C8.2243 6.53176 8.19678 6.50892 8.16533 6.48608L3.07823 2.07825C2.85807 1.88793 2.52391 1.90696 2.32735 2.12012C2.13078 2.33328 2.15044 2.65683 2.37059 2.84715L7.07243 6.91621L2.39025 11.1604C2.17796 11.3545 2.16616 11.678 2.36666 11.8874C2.47281 11.994 2.61433 12.0511 2.75586 12.0511C2.88559 12.0511 3.01533 12.0054 3.11754 11.914L7.87048 7.60898L9.15995 8.72426C9.26217 8.8118 9.38797 8.85367 9.51377 8.85367C9.63957 8.85367 9.7693 8.808 9.86759 8.72045L11.1924 7.57091L15.9179 11.9178C16.0201 12.013 16.1537 12.0587 16.2835 12.0587C16.425 12.0587 16.5626 12.0054 16.6687 11.8988C16.8692 11.6933 16.8614 11.3659 16.6491 11.1718L11.9826 6.88195Z"/>
</symbol><symbol id="minus" viewBox="0 0 16 2">
<path d="M0 0.5H16V1.5H0V0.5Z"/>
</symbol><symbol id="odnoklassniki" viewBox="0 0 27 26">
<path d="M13.8512 10.9569C14.8668 10.9569 15.6568 10.1212 15.638 9.21124C15.6568 8.30124 14.8857 7.44696 13.87 7.44696C12.892 7.44696 12.0833 8.22696 12.0833 9.19267C12.0833 10.1584 12.8732 10.9569 13.8512 10.9569Z"/>
<path d="M13.701 6.10352e-05C6.44113 6.10352e-05 0.5354 5.83146 0.5354 13C0.5354 20.1871 6.44113 25.9999 13.701 25.9999C20.9797 25.9999 26.8667 20.1685 26.8667 13C26.8855 5.83146 20.9797 6.10352e-05 13.701 6.10352e-05ZM13.8891 4.92147C16.2589 4.92147 18.215 6.85288 18.1962 9.21144C18.1962 11.5886 16.2213 13.5014 13.8139 13.4643C11.4441 13.4271 9.54445 11.5143 9.54445 9.19287C9.54445 6.83431 11.4817 4.92147 13.8891 4.92147ZM18.7228 14.95C18.7228 14.9871 18.704 15.0057 18.704 15.0428C18.6475 15.4143 18.4595 15.7114 18.1397 15.9157C17.9328 16.0457 17.7071 16.1757 17.4814 16.2871C16.9172 16.5657 16.3153 16.7885 15.6947 16.9371C15.6195 16.9557 15.6195 16.9557 15.6759 17.0114C16.0144 17.3457 16.3718 17.6985 16.7103 18.0328C17.1429 18.46 17.5943 18.9057 18.0269 19.3328C18.6475 19.9457 18.4783 20.9671 17.6883 21.3385C17.5567 21.4128 17.4062 21.4314 17.2558 21.4685C17.1805 21.4685 17.0865 21.4685 17.0112 21.4685C16.9924 21.4685 16.9736 21.4685 16.9736 21.45C16.6727 21.4128 16.4282 21.2642 16.2025 21.06C15.4502 20.3171 14.679 19.5557 13.9267 18.8128C13.8703 18.7571 13.8703 18.7571 13.8139 18.8128C13.0427 19.5743 12.2904 20.3171 11.5193 21.0785C11.3876 21.2085 11.256 21.3014 11.0867 21.3757C10.9739 21.4314 10.8422 21.45 10.7294 21.4685C10.6541 21.4685 10.5789 21.4685 10.4849 21.4685C10.4472 21.4685 10.4284 21.45 10.3908 21.45C9.883 21.3571 9.54445 21.0785 9.39399 20.5957C9.24352 20.1128 9.35637 19.6857 9.71373 19.3328C10.0335 19.0171 10.3344 18.72 10.6541 18.4043C11.1243 17.94 11.5945 17.4757 12.0459 17.03C12.1023 16.9743 12.1023 16.9743 12.0271 16.9557C12.0083 16.9557 11.9707 16.9371 11.9519 16.9371C11.1055 16.7328 10.3344 16.3986 9.60088 15.9528C9.16829 15.6743 8.9614 15.2657 9.01783 14.7643C9.11187 13.8357 10.1651 13.3343 10.9551 13.8357C11.1055 13.9286 11.2372 14.0029 11.4064 14.0771C12.2716 14.5043 13.1932 14.69 14.1524 14.6343C14.6226 14.6157 15.0928 14.5228 15.563 14.3743C16.0144 14.2257 16.4094 14.0214 16.8232 13.7986C17.5003 13.4086 18.3842 13.7243 18.6475 14.4486C18.6852 14.56 18.704 14.6528 18.7228 14.7643C18.7228 14.82 18.7228 14.8757 18.7228 14.95Z"/>
</symbol><symbol id="phone" viewBox="0 0 18 18">
<path d="M14.2333 11.1505C13.8642 10.7668 13.4191 10.5616 12.9473 10.5616C12.4794 10.5616 12.0304 10.763 11.6462 11.1467L10.4439 12.3434C10.345 12.2902 10.2461 12.2408 10.151 12.1914C10.014 12.123 9.88467 12.0584 9.77433 11.99C8.64819 11.2758 7.62476 10.3451 6.64319 9.14078C6.16762 8.54053 5.84804 8.03526 5.61596 7.5224C5.92793 7.23747 6.21708 6.94114 6.49861 6.65622C6.60514 6.54985 6.71167 6.43967 6.8182 6.3333C7.61715 5.53551 7.61715 4.50217 6.8182 3.70438L5.77955 2.66724C5.66161 2.54947 5.53987 2.4279 5.42573 2.30634C5.19746 2.0708 4.95777 1.82766 4.71047 1.59972C4.34143 1.23501 3.9001 1.04126 3.43595 1.04126C2.97179 1.04126 2.52286 1.23501 2.1424 1.59972C2.1386 1.60352 2.1386 1.60352 2.13479 1.60731L0.841243 2.91038C0.35426 3.39666 0.076528 3.9893 0.0156552 4.67693C-0.0756541 5.78624 0.251537 6.81958 0.502638 7.4958C1.11898 9.15598 2.03968 10.6946 3.41312 12.3434C5.07952 14.3302 7.08452 15.8992 9.37486 17.0048C10.2499 17.4189 11.4179 17.9089 12.7229 17.9925C12.8028 17.9963 12.8865 18.0001 12.9626 18.0001C13.8414 18.0001 14.5795 17.6848 15.1578 17.0579C15.1616 17.0504 15.1692 17.0466 15.173 17.039C15.3708 16.7996 15.5991 16.5831 15.8388 16.3513C16.0024 16.1956 16.1698 16.0322 16.3334 15.8613C16.71 15.47 16.9079 15.0141 16.9079 14.5468C16.9079 14.0757 16.7062 13.6236 16.322 13.2437L14.2333 11.1505ZM15.5953 15.1508C15.5915 15.1508 15.5915 15.1546 15.5953 15.1508C15.4469 15.3104 15.2947 15.4548 15.1311 15.6143C14.8838 15.8499 14.6327 16.0968 14.3969 16.3741C14.0126 16.7844 13.5599 16.9782 12.9664 16.9782C12.9093 16.9782 12.8484 16.9782 12.7913 16.9744C11.6614 16.9022 10.6113 16.4615 9.82379 16.0854C7.67042 15.0445 5.77955 13.5666 4.20827 11.6937C2.91092 10.1323 2.04348 8.6887 1.46899 7.13869C1.11517 6.19274 0.985816 5.45573 1.04288 4.76051C1.08093 4.31602 1.25214 3.94751 1.56791 3.63219L2.86527 2.33673C3.05169 2.16197 3.24953 2.067 3.44356 2.067C3.68324 2.067 3.87728 2.21136 3.99902 2.33293C4.00283 2.33673 4.00663 2.34053 4.01044 2.34433C4.24251 2.56087 4.46318 2.78501 4.69526 3.02435C4.8132 3.14592 4.93494 3.26749 5.05669 3.39286L6.09533 4.42999C6.49861 4.83269 6.49861 5.20499 6.09533 5.60769C5.985 5.71786 5.87847 5.82803 5.76814 5.9344C5.44856 6.26112 5.14419 6.56504 4.8132 6.86137C4.80559 6.86896 4.79798 6.87276 4.79417 6.88036C4.46698 7.20708 4.52786 7.5262 4.59634 7.74274C4.60014 7.75414 4.60395 7.76553 4.60775 7.77693C4.87787 8.43036 5.25833 9.0458 5.83662 9.77902L5.84043 9.78282C6.89048 11.0745 7.99761 12.0812 9.21887 12.8524C9.37486 12.9512 9.53465 13.031 9.68683 13.107C9.82379 13.1753 9.95315 13.2399 10.0635 13.3083C10.0787 13.3159 10.0939 13.3273 10.1091 13.3349C10.2385 13.3995 10.3602 13.4299 10.4858 13.4299C10.8016 13.4299 10.9994 13.2323 11.0641 13.1677L12.3652 11.8685C12.4946 11.7393 12.7 11.5836 12.9397 11.5836C13.1756 11.5836 13.3696 11.7317 13.4876 11.8609C13.4914 11.8647 13.4914 11.8647 13.4952 11.8685L15.5915 13.9617C15.9834 14.3492 15.9834 14.7481 15.5953 15.1508Z"/>
<path d="M9.72863 4.28181C10.7254 4.44897 11.6309 4.92005 12.3538 5.64186C13.0766 6.36368 13.5446 7.26784 13.7158 8.26319C13.7577 8.51392 13.9745 8.68868 14.2218 8.68868C14.2522 8.68868 14.2789 8.68488 14.3093 8.68108C14.5909 8.63549 14.7773 8.36956 14.7316 8.08843C14.5262 6.88414 13.9555 5.78622 13.0842 4.91625C12.213 4.04627 11.1135 3.47642 9.90745 3.27127C9.62591 3.22568 9.3634 3.41183 9.31394 3.68916C9.26448 3.96649 9.4471 4.23622 9.72863 4.28181Z"/>
<path d="M17.9921 7.94018C17.6535 5.95709 16.7176 4.15255 15.2795 2.71652C13.8414 1.28049 12.0342 0.345932 10.0482 0.00781895C9.77049 -0.0415684 9.50798 0.148383 9.45852 0.425712C9.41286 0.70684 9.59929 0.968972 9.88082 1.01836C11.6537 1.31848 13.2707 2.15807 14.5566 3.43834C15.8426 4.72241 16.6796 6.33699 16.9801 8.10734C17.022 8.35808 17.2388 8.53283 17.4861 8.53283C17.5166 8.53283 17.5432 8.52903 17.5736 8.52523C17.8514 8.48344 18.0416 8.21751 17.9921 7.94018Z"/>
</symbol><symbol id="plus" viewBox="0 0 16 16">
<path fill-rule="evenodd" clip-rule="evenodd" d="M8.5 7.5V0H7.5V7.5H0V8.5H7.5V16H8.5V8.5H16V7.5H8.5Z"/>
</symbol><symbol id="polygons" viewBox="0 0 1920 881">
<mask id="mask0_6:450" style="mask-type:alpha" maskUnits="userSpaceOnUse" x="0" y="-69" width="1920" height="950">
<rect y="-69" width="1920" height="950" fill="#C4C4C4"/>
</mask>
<g mask="url(#mask0_6:450)">
<circle cx="1657" cy="277" r="5" fill="white"/>
<circle cx="1382" cy="753" r="5" fill="white"/>
<circle cx="1217" cy="754" r="5" fill="white"/>
<circle cx="1056" cy="476" r="5" fill="white"/>
<circle cx="1107" cy="277" r="5" fill="white"/>
<path opacity="0.2" fill="none" d="M1377.15 475.75L1216.5 754L1055.85 475.75L1377.15 475.75Z" stroke="white"/>
<path opacity="0.2" fill="none" d="M1656.84 287.584L1382.17 763.334L1107.49 287.584L1656.84 287.584Z" stroke="white"/>
</g>
</symbol><symbol id="retective" viewBox="0 0 36 31">
<path d="M18 9.75818C17.6119 9.75818 17.2969 10.0751 17.2969 10.4662C17.2969 10.8571 17.6119 11.1743 18 11.1743C18.3881 11.1743 18.7031 10.8571 18.7031 10.4662C18.7031 10.0751 18.3881 9.75818 18 9.75818Z"/>
<path d="M33.8906 14.0066H31.1548C29.7125 9.85946 27.6199 2.58774 23.8291 0.529671C21.9331 -0.498398 20.141 0.219618 19.4669 1.67833C19.1802 2.29844 18.6075 2.62453 18 2.62453C17.3842 2.62453 16.8162 2.29124 16.5331 1.67888C15.8829 0.269957 14.1336 -0.513887 12.3041 0.380314C8.45261 2.26386 6.29874 9.8282 4.84525 14.0066H2.10938C0.944 14.0066 0 14.9569 0 16.1308C0 17.3018 0.946198 18.2549 2.10938 18.2549H33.8906C35.056 18.2549 36 17.3043 36 16.1308C36 14.9594 35.0538 14.0066 33.8906 14.0066V14.0066ZM7.31525 11.1743H15.1875C15.5759 11.1743 15.8906 10.8571 15.8906 10.4663C15.8906 10.0752 15.5759 9.75823 15.1875 9.75823H7.80688C9.92642 3.86225 11.9064 2.14908 12.9183 1.65427C14.0221 1.11493 14.9307 1.56631 15.2581 2.27603C15.7739 3.39178 16.8409 4.04065 18 4.04065C19.1618 4.04065 20.2275 3.38929 20.7419 2.27603C21.0789 1.54612 21.9922 1.14203 23.1619 1.77624C24.1784 2.32831 26.1524 4.09845 28.1928 9.75823H20.8125C20.4241 9.75823 20.1094 10.0752 20.1094 10.4663C20.1094 10.8574 20.4241 11.1743 20.8125 11.1743H28.685C29.0404 12.2066 29.4096 13.2717 29.665 14.0066H6.33527C6.58987 13.2736 6.95819 12.211 7.31525 11.1743V11.1743ZM33.8906 16.8388H2.10938C1.72156 16.8388 1.40625 16.521 1.40625 16.1308C1.40625 15.7397 1.72101 15.4227 2.10938 15.4227H33.8906C34.2784 15.4227 34.5938 15.7402 34.5938 16.1308C34.5938 16.5216 34.2787 16.8388 33.8906 16.8388Z"/>
<path d="M16.5938 21.0872H5.34375C4.95538 21.0872 4.64062 21.4042 4.64062 21.7952V24.6275C4.64062 28.1412 7.47949 31 10.9688 31C13.6126 31 15.9527 29.3624 16.8835 26.8952C17.5905 26.5705 18.4095 26.5705 19.1165 26.8952C20.0473 29.3624 22.3874 30.9997 25.0312 30.9997C28.5205 30.9997 31.3594 28.1412 31.3594 24.6272V21.795C31.3594 21.4039 31.0446 21.0869 30.6562 21.0869H19.4062C19.0179 21.0869 18.7031 21.4039 18.7031 21.795V22.503H17.2969V21.795C17.2969 21.4042 16.9821 21.0872 16.5938 21.0872V21.0872ZM10.9688 29.5839C8.25485 29.5839 6.04688 27.3604 6.04688 24.6275V22.5033H15.8906V24.6275C15.8906 27.3676 13.6945 29.5839 10.9688 29.5839ZM20.1094 22.5033H29.9531V24.6275C29.9531 27.3604 27.7451 29.5839 25.0312 29.5839C22.2987 29.5839 20.1094 27.361 20.1094 24.6275V22.5033ZM18.7031 23.9194V24.6275C18.7031 24.8537 18.716 25.0792 18.7394 25.3029C18.2508 25.213 17.7492 25.213 17.2606 25.3029C17.284 25.0792 17.2969 24.8537 17.2969 24.6275V23.9194H18.7031Z"/>
<path d="M10.9688 26.7515C9.80557 26.7515 8.85938 25.7984 8.85938 24.6274C8.85938 24.2363 8.54462 23.9193 8.15625 23.9193C7.76788 23.9193 7.45312 24.2363 7.45312 24.6274C7.45312 26.5792 9.03021 28.1677 10.9688 28.1677C11.3571 28.1677 11.6719 27.8504 11.6719 27.4596C11.6719 27.0685 11.3571 26.7515 10.9688 26.7515Z"/>
<path d="M25.0312 28.1677C26.9698 28.1677 28.5469 26.5792 28.5469 24.6274C28.5469 24.2363 28.2321 23.9193 27.8438 23.9193C27.4554 23.9193 27.1406 24.2363 27.1406 24.6274C27.1406 25.7984 26.1944 26.7515 25.0312 26.7515C24.6429 26.7515 24.3281 27.0685 24.3281 27.4596C24.3281 27.8504 24.6429 28.1677 25.0312 28.1677Z"/>
</symbol><symbol id="stopwatch" viewBox="0 0 29 35">
<path d="M3.18833 11.6622L1.70191 10.1904C0.894381 9.39114 0.894381 8.09017 1.70191 7.29042C2.50945 6.49094 3.82351 6.49094 4.63104 7.29042L6.21806 8.86162C7.87358 7.72007 9.7608 6.92993 11.7381 6.55075V4.51172H10.3571C9.97576 4.51172 9.66667 4.2057 9.66667 3.82812V2.05078C9.66667 0.919914 10.5958 0 11.7381 0H17.2619C18.4042 0 19.3333 0.919914 19.3333 2.05078V3.82812C19.3333 4.2057 19.0242 4.51172 18.6429 4.51172H17.2619V6.55075C19.2389 6.92966 21.1264 7.72007 22.7819 8.86162L24.369 7.29042C25.1762 6.49094 26.4903 6.49094 27.2981 7.29042C28.1056 8.0899 28.1056 9.39087 27.2981 10.1904L25.8117 11.6622C27.872 14.203 29 17.3678 29 20.6445C29 28.5601 22.4952 35 14.5 35C6.50477 35 -1.90735e-06 28.5601 -1.90735e-06 20.6445C-1.90735e-06 17.3678 1.12796 14.203 3.18833 11.6622ZM3.65467 8.25706C3.38522 7.99057 2.94747 7.99084 2.67829 8.25706C2.40938 8.52356 2.40938 8.95721 2.67829 9.22371L4.10509 10.636C4.4266 10.3092 4.76374 9.99756 5.11438 9.70249L3.65467 8.25706ZM17.9524 2.05078C17.9524 1.67374 17.6427 1.36719 17.2619 1.36719H11.7381C11.3573 1.36719 11.0476 1.67374 11.0476 2.05078V3.14453H17.9524V2.05078ZM13.119 4.51172V6.35368C14.0342 6.26877 14.9655 6.26877 15.881 6.35368V4.51172H13.119ZM26.3217 8.25706C26.0525 7.99084 25.6145 7.99057 25.3453 8.25706L23.8856 9.70249C24.2363 9.99756 24.5734 10.3092 24.8949 10.636L26.3217 9.22371C26.5906 8.95721 26.5906 8.52356 26.3217 8.25706ZM14.5 33.6328C21.7338 33.6328 27.619 27.8062 27.619 20.6445C27.619 17.4853 26.4606 14.4415 24.3574 12.0732C23.778 11.4208 23.1315 10.8248 22.4359 10.3009C20.6927 8.98766 18.6294 8.12328 16.4689 7.80098C15.8224 7.70512 15.16 7.65625 14.5 7.65625C13.84 7.65625 13.1776 7.70512 12.5313 7.80098C10.3706 8.12328 8.30729 8.98766 6.56384 10.3009C5.86851 10.8248 5.22199 11.4208 4.64264 12.0732C2.53939 14.4415 1.38095 17.4853 1.38095 20.6445C1.38095 27.8062 7.26618 33.6328 14.5 33.6328Z"/>
<path d="M14.5 22.6953C13.3578 22.6953 12.4286 21.7754 12.4286 20.6445C12.4286 19.7535 13.0058 18.9935 13.8095 18.7112V13.8086C13.8095 13.431 14.1186 13.125 14.5 13.125C14.8814 13.125 15.1905 13.431 15.1905 13.8086V18.7112C15.9942 18.9935 16.5714 19.7535 16.5714 20.6445C16.5714 21.7754 15.6423 22.6953 14.5 22.6953ZM14.5 19.9609C14.1192 19.9609 13.8095 20.2675 13.8095 20.6445C13.8095 21.0216 14.1192 21.3281 14.5 21.3281C14.8809 21.3281 15.1905 21.0216 15.1905 20.6445C15.1905 20.2675 14.8809 19.9609 14.5 19.9609Z"/>
<path d="M7.14455 13.4326C7.15533 13.4201 7.16612 13.4075 7.17826 13.3958C7.19121 13.3827 7.20496 13.371 7.21872 13.3592C8.43568 12.1672 9.93909 11.2852 11.5706 10.8083C11.9366 10.7015 12.3204 10.9082 12.4283 11.2702C12.5362 11.6323 12.3274 12.0126 11.9617 12.1194C10.7528 12.4729 9.62514 13.0839 8.66386 13.8997L9.12966 14.3608C9.39911 14.6279 9.39911 15.0607 9.12966 15.3277C8.99481 15.4613 8.81814 15.528 8.64121 15.528C8.46454 15.528 8.28788 15.4613 8.15302 15.3277L7.68614 14.8655C6.43681 16.3037 5.69482 18.0741 5.55025 19.961H6.21429C6.59567 19.961 6.90477 20.2672 6.90477 20.6446C6.90477 21.0221 6.59567 21.3281 6.21429 21.3281H5.55025C5.69482 23.2152 6.43681 24.9854 7.68614 26.4236L8.15302 25.9614C8.42274 25.6946 8.85995 25.6946 9.12966 25.9614C9.39938 26.2284 9.39938 26.6612 9.12966 26.9283L8.66278 27.3905C10.1155 28.6274 11.9037 29.362 13.8095 29.5054V28.8477C13.8095 28.4701 14.1186 28.1641 14.5 28.1641C14.8814 28.1641 15.1905 28.4701 15.1905 28.8477V29.5051C17.0963 29.362 18.8845 28.6274 20.3372 27.3905L19.8703 26.9283C19.6006 26.6612 19.6006 26.2284 19.8703 25.9614C20.1401 25.6946 20.5773 25.6946 20.847 25.9614L21.3139 26.4236C22.5632 24.9854 23.3052 23.215 23.4498 21.3281H22.7857C22.4043 21.3281 22.0952 21.0221 22.0952 20.6446C22.0952 20.267 22.4043 19.961 22.7857 19.961H23.4498C23.3052 18.0741 22.5632 16.3037 21.3139 14.8655L20.847 15.3277C20.7121 15.4613 20.5355 15.528 20.3588 15.528C20.1819 15.528 20.0052 15.4613 19.8703 15.3277C19.6009 15.0607 19.6009 14.6279 19.8703 14.3608L20.3361 13.8997C19.3749 13.0836 18.2472 12.4729 17.0383 12.1194C16.6726 12.0126 16.4638 11.6323 16.5717 11.2702C16.6796 10.9082 17.0631 10.7017 17.4294 10.8083C19.0607 11.2849 20.5635 12.1667 21.7802 13.3581C21.7945 13.3702 21.8085 13.3824 21.8217 13.3955C21.8336 13.4073 21.8441 13.4196 21.8549 13.4318C23.7912 15.3667 24.8571 17.9259 24.8571 20.6446C24.8571 23.3629 23.7912 25.9218 21.8555 27.8565C21.8447 27.869 21.8339 27.8816 21.8217 27.8933C21.8099 27.9053 21.7975 27.9158 21.7851 27.9264C19.8307 29.8432 17.246 30.8985 14.5 30.8985C11.7543 30.8985 9.16958 29.8434 7.21548 27.927C7.2028 27.916 7.19013 27.9053 7.17826 27.8933C7.16639 27.8818 7.15587 27.8693 7.14509 27.8573C5.20879 25.9224 4.14286 23.3632 4.14286 20.6446C4.14286 17.9262 5.20879 15.3673 7.14455 13.4326Z"/>
<path d="M14.5 11.7578C14.1189 11.7578 13.8095 11.4515 13.8095 11.0742C13.8095 10.6969 14.1189 10.3906 14.5 10.3906C14.8811 10.3906 15.1905 10.6969 15.1905 11.0742C15.1905 11.4515 14.8811 11.7578 14.5 11.7578Z"/>
</symbol><symbol id="tag" viewBox="0 0 35 35">
<path d="M11.0709 8.58472C10.9437 8.45756 10.7674 8.3844 10.5876 8.3844C10.4078 8.3844 10.2314 8.45756 10.1043 8.58472C9.9772 8.71189 9.90399 8.88828 9.90399 9.0681C9.90399 9.24791 9.97714 9.4243 10.1043 9.55147C10.2314 9.67871 10.4078 9.75179 10.5876 9.75179C10.7674 9.75179 10.9437 9.67864 11.0709 9.55147C11.198 9.4243 11.2712 9.24791 11.2712 9.0681C11.2712 8.88828 11.198 8.71189 11.0709 8.58472Z"/>
<path d="M34.8 2.85866L33.9548 2.01231L34.7998 1.16719C35.0667 0.900207 35.0667 0.46729 34.7998 0.200238C34.5328 -0.0667459 34.1 -0.0667459 33.833 0.200238L32.9885 1.04481L32.1556 0.210835C32.0275 0.0825735 31.8537 0.0103751 31.6724 0.0103067L20.1023 0.00387998C20.1016 0.00387998 20.101 0.00387998 20.1004 0.00387998C19.1868 0.00387998 18.3278 0.359676 17.6818 1.00584L11.9081 6.78034C11.6412 7.04732 11.6412 7.48024 11.9081 7.74729C12.1751 8.01428 12.6079 8.01428 12.8749 7.74729L18.6486 1.97279C19.0364 1.58486 19.5519 1.37134 20.1004 1.37134C20.1008 1.37134 20.1012 1.37134 20.1016 1.37134L31.3884 1.37763L32.0219 2.01183L29.4854 4.54862C28.4099 3.9043 26.9919 4.0448 26.066 4.97066C25.5371 5.49971 25.2459 6.20303 25.2459 6.95113C25.2459 7.69923 25.5371 8.40255 26.066 8.93159C26.612 9.47759 27.3291 9.75059 28.0463 9.75059C28.7634 9.75059 29.4805 9.47759 30.0264 8.93159C30.9508 8.00703 31.0922 6.59164 30.4514 5.51646L32.9881 2.97933L33.6327 3.62481L33.6265 14.8981C33.6261 15.4461 33.4126 15.9614 33.025 16.349L16.3438 33.0327C15.956 33.4205 15.4403 33.6341 14.892 33.6341C14.3436 33.6341 13.8279 33.4205 13.4401 33.0327L1.96861 21.5593C1.58074 21.1715 1.36719 20.6558 1.36719 20.1073C1.36719 19.5588 1.58074 19.0431 1.96861 18.6553L9.33734 11.2854C9.60429 11.0184 9.60429 10.5855 9.33734 10.3185C9.07033 10.0515 8.63762 10.0515 8.37054 10.3185L1.00181 17.6883C0.355811 18.3344 0 19.1935 0 20.1073C0 21.0211 0.355811 21.8802 1.00181 22.5263L12.4733 33.9996C13.1402 34.6665 14.016 35 14.892 35C15.7679 35 16.6437 34.6665 17.3106 33.9996L33.9918 17.3158C34.6373 16.6702 34.993 15.8118 34.9936 14.8987L35 3.34217C35.0001 3.16085 34.9282 2.98692 34.8 2.85866ZM29.0596 7.96457C28.7889 8.23532 28.429 8.38443 28.0463 8.38443C27.6634 8.38443 27.3036 8.23532 27.0329 7.96457C26.474 7.40572 26.474 6.49633 27.0329 5.93748C27.3123 5.65798 27.6792 5.51831 28.0463 5.51831C28.1845 5.51831 28.3227 5.5382 28.4562 5.57786L27.6672 6.36698C27.4003 6.63396 27.4003 7.06688 27.6672 7.33393C27.8007 7.46746 27.9757 7.53419 28.1506 7.53419C28.3255 7.53419 28.5005 7.46746 28.634 7.33393L29.4208 6.547C29.5629 7.03372 29.4427 7.5815 29.0596 7.96457Z"/>
<path d="M29.2003 13.7645L21.2338 5.79669C20.1784 4.7412 18.4612 4.74134 17.406 5.79669L4.79909 18.4056C4.28783 18.9168 4.00626 19.5966 4.00626 20.3197C4.00626 21.0428 4.28776 21.7227 4.79902 22.2339L12.7656 30.2016C13.2769 30.7129 13.9565 30.9946 14.6795 30.9946C15.4024 30.9946 16.0822 30.713 16.5933 30.2017L29.2003 17.5928C29.7116 17.0815 29.9931 16.4017 29.9931 15.6786C29.9931 14.9556 29.7116 14.2758 29.2003 13.7645ZM28.2335 16.6258L15.6266 29.2349C15.3737 29.4878 15.0373 29.6272 14.6795 29.6272C14.3218 29.6272 13.9854 29.4878 13.7325 29.2348L5.76583 21.267C5.51283 21.014 5.37351 20.6776 5.37351 20.3198C5.37344 19.9619 5.51283 19.6255 5.76583 19.3725L18.3728 6.76365C18.6339 6.50247 18.9769 6.37189 19.3199 6.37189C19.6629 6.37189 20.0059 6.50254 20.267 6.76365L28.2335 14.7314C28.4865 14.9844 28.6258 15.3208 28.6258 15.6786C28.6258 16.0364 28.4865 16.3729 28.2335 16.6258Z"/>
<path d="M22.2905 13.677C22.5574 13.41 22.5574 12.9771 22.2905 12.71C22.0235 12.443 21.5908 12.443 21.3237 12.71L20.9301 13.1037C19.879 12.4544 18.5305 12.5415 17.6779 13.394C17.1809 13.8912 16.9266 14.5662 16.9619 15.2949C16.996 15.9985 17.299 16.6702 17.8149 17.1862C17.8149 17.1863 17.815 17.1863 17.815 17.1864C18.3648 17.7365 18.4262 18.5701 17.9518 19.0446C17.4772 19.5191 16.6436 19.4577 16.0936 18.9077C15.5436 18.3575 15.4822 17.5238 15.9567 17.0492C16.2236 16.7822 16.2236 16.3493 15.9567 16.0823C15.6896 15.8153 15.2569 15.8153 14.9898 16.0823C14.1374 16.9348 14.0503 18.2836 14.6995 19.3349L14.2325 19.8019C13.9656 20.0689 13.9656 20.5018 14.2325 20.7689C14.3663 20.9025 14.5413 20.9693 14.7162 20.9693C14.8912 20.9693 15.0661 20.9025 15.1996 20.769L15.6669 20.3016C16.1261 20.5853 16.642 20.729 17.1486 20.729C17.8014 20.7289 18.4387 20.4915 18.9187 20.0115C19.926 19.004 19.8648 17.3033 18.7823 16.22C18.7821 16.2198 18.7819 16.2196 18.7817 16.2194C18.5065 15.9441 18.3452 15.5923 18.3276 15.2287C18.3112 14.8901 18.4238 14.582 18.6448 14.361C19.1192 13.8864 19.9527 13.9478 20.5028 14.4977C20.5028 14.4978 20.5028 14.4979 20.5029 14.4979C20.503 14.498 20.503 14.498 20.503 14.498C21.0529 15.0482 21.1142 15.8817 20.6397 16.3563C20.3728 16.6233 20.3728 17.0562 20.6397 17.3232C20.7733 17.4568 20.9482 17.5235 21.1231 17.5235C21.2981 17.5235 21.473 17.4568 21.6065 17.3232C22.4589 16.4706 22.5461 15.1218 21.8969 14.0706L22.2905 13.677Z"/>
<path d="M15.3717 25.0117L11.8607 21.5001C11.5938 21.2333 11.1611 21.2331 10.8939 21.5001C10.627 21.767 10.627 22.2 10.8939 22.467L14.405 25.9786C14.5385 26.1121 14.7134 26.1789 14.8883 26.1789C15.0633 26.1789 15.2382 26.1121 15.3717 25.9786C15.6387 25.7116 15.6387 25.2787 15.3717 25.0117Z"/>
<path d="M9.98793 19.627C9.86085 19.4999 9.6851 19.4266 9.5047 19.4266C9.32491 19.4266 9.14923 19.4998 9.0214 19.627C8.89425 19.7541 8.82111 19.9305 8.82111 20.111C8.82111 20.2908 8.89418 20.4672 9.0214 20.5944C9.14855 20.7216 9.32491 20.7947 9.5047 20.7947C9.68517 20.7947 9.86085 20.7216 9.98793 20.5944C10.1158 20.4665 10.1889 20.2908 10.1889 20.111C10.1889 19.9305 10.1158 19.7548 9.98793 19.627Z"/>
</symbol><symbol id="vkontakte" viewBox="0 0 27 26">
<path d="M19.475 15.1271C18.3662 14.1029 18.287 14.1029 19.2374 12.9211C20.4254 11.4243 22.0095 9.53349 20.5838 9.53349H17.9701C17.4949 9.53349 17.4157 9.84862 17.2573 10.2425C16.6237 11.7394 15.3565 13.709 14.8812 13.3938C14.406 13.0787 14.6436 11.897 14.6436 10.0062C14.7228 9.76984 14.6436 9.53349 14.4852 9.37592C14.3268 9.21836 14.0892 9.06079 13.8516 9.06079C13.4556 8.98201 13.0596 8.90323 12.6636 8.90323C11.1587 8.90323 10.1291 9.53349 10.6835 9.61227C11.7131 9.76984 11.6339 11.9758 11.3963 12.9211C11.0003 14.5756 9.41624 11.6606 8.70342 10.1638C8.62421 9.76984 8.3074 9.53349 7.91139 9.53349H5.85212C5.53531 9.53349 5.2977 9.61227 5.2977 9.84862C5.2977 10.2425 7.27777 14.1029 9.09943 16.0725C10.9211 17.9632 12.7428 17.8057 14.01 17.8057C14.1684 17.8057 14.3268 17.7269 14.406 17.6481C14.4852 17.5693 14.5644 17.4118 14.5644 17.2542C14.5644 15.9937 15.0396 15.3634 15.9109 16.23C16.8613 17.1754 17.0989 17.8057 18.287 17.8057H20.4254C20.9799 17.8057 21.1383 17.6481 21.1383 17.4118C21.2175 16.8603 20.267 15.8361 19.475 15.1271ZM13.8516 0.000789162C21.2175 0.158354 27.0785 6.06705 26.9993 13.2363C26.9201 20.4055 20.8214 26.0778 13.4556 25.9991C6.01052 25.9203 0.0703125 20.1691 0.0703125 12.9999C0.149515 5.75192 6.32733 -0.0779935 13.8516 0.000789162Z"/>
</symbol></svg>