<svg viewBox="0 0 27 27" fill="none" xmlns="http://www.w3.org/2000/svg">
  <path fill-rule="evenodd" clip-rule="evenodd" d="M27 13.5001C27 6.04468 20.9562 6.10352e-05 13.5 6.10352e-05C6.04379 6.10352e-05 0 6.04468 0 13.5001C0 20.9563 6.04369 27.0001 13.5 27.0001C20.9562 27.0001 27 20.9564 27 13.5001ZM16.8836 9.29401H15.1437C14.6754 9.29401 14.3464 9.69059 14.3464 10.1851V10.9604H16.8312L16.4288 13.4773H14.3455V20.2239H11.8025V13.4773H10.115V10.9604H11.8025V9.67706H11.8075C11.8523 8.21399 12.3602 6.82098 14.8383 6.73321V6.72394H16.8836V9.29401Z"/>
</svg>
