<svg viewBox="0 0 19 14" fill="none" xmlns="http://www.w3.org/2000/svg">
<path d="M16.6805 0H2.3234C1.0418 0 0 1.0087 0 2.24959V11.7504C0 12.9913 1.0418 14 2.3234 14H16.6766C17.9582 14 19 12.9913 19 11.7504V2.2534C19.0039 1.01251 17.9621 0 16.6805 0ZM17.9425 11.7504C17.9425 12.4241 17.3764 12.9723 16.6805 12.9723H2.3234C1.62756 12.9723 1.06145 12.4241 1.06145 11.7504V2.2534C1.06145 1.57966 1.62756 1.03154 2.3234 1.03154H16.6766C17.3724 1.03154 17.9385 1.57966 17.9385 2.2534V11.7504H17.9425Z"/>
<path d="M11.9826 6.88195L16.6294 2.84715C16.8456 2.65683 16.8653 2.33328 16.6687 2.12012C16.4722 1.91077 16.138 1.89174 15.9179 2.08206L9.50984 7.65085L8.25968 6.56982C8.25575 6.56602 8.25182 6.56221 8.25182 6.5584C8.2243 6.53176 8.19678 6.50892 8.16533 6.48608L3.07823 2.07825C2.85807 1.88793 2.52391 1.90696 2.32735 2.12012C2.13078 2.33328 2.15044 2.65683 2.37059 2.84715L7.07243 6.91621L2.39025 11.1604C2.17796 11.3545 2.16616 11.678 2.36666 11.8874C2.47281 11.994 2.61433 12.0511 2.75586 12.0511C2.88559 12.0511 3.01533 12.0054 3.11754 11.914L7.87048 7.60898L9.15995 8.72426C9.26217 8.8118 9.38797 8.85367 9.51377 8.85367C9.63957 8.85367 9.7693 8.808 9.86759 8.72045L11.1924 7.57091L15.9179 11.9178C16.0201 12.013 16.1537 12.0587 16.2835 12.0587C16.425 12.0587 16.5626 12.0054 16.6687 11.8988C16.8692 11.6933 16.8614 11.3659 16.6491 11.1718L11.9826 6.88195Z"/>
</svg>
