<svg viewBox="0 0 27 26" fill="none" xmlns="http://www.w3.org/2000/svg">
<path d="M13.8512 10.9569C14.8668 10.9569 15.6568 10.1212 15.638 9.21124C15.6568 8.30124 14.8857 7.44696 13.87 7.44696C12.892 7.44696 12.0833 8.22696 12.0833 9.19267C12.0833 10.1584 12.8732 10.9569 13.8512 10.9569Z" />
<path d="M13.701 6.10352e-05C6.44113 6.10352e-05 0.5354 5.83146 0.5354 13C0.5354 20.1871 6.44113 25.9999 13.701 25.9999C20.9797 25.9999 26.8667 20.1685 26.8667 13C26.8855 5.83146 20.9797 6.10352e-05 13.701 6.10352e-05ZM13.8891 4.92147C16.2589 4.92147 18.215 6.85288 18.1962 9.21144C18.1962 11.5886 16.2213 13.5014 13.8139 13.4643C11.4441 13.4271 9.54445 11.5143 9.54445 9.19287C9.54445 6.83431 11.4817 4.92147 13.8891 4.92147ZM18.7228 14.95C18.7228 14.9871 18.704 15.0057 18.704 15.0428C18.6475 15.4143 18.4595 15.7114 18.1397 15.9157C17.9328 16.0457 17.7071 16.1757 17.4814 16.2871C16.9172 16.5657 16.3153 16.7885 15.6947 16.9371C15.6195 16.9557 15.6195 16.9557 15.6759 17.0114C16.0144 17.3457 16.3718 17.6985 16.7103 18.0328C17.1429 18.46 17.5943 18.9057 18.0269 19.3328C18.6475 19.9457 18.4783 20.9671 17.6883 21.3385C17.5567 21.4128 17.4062 21.4314 17.2558 21.4685C17.1805 21.4685 17.0865 21.4685 17.0112 21.4685C16.9924 21.4685 16.9736 21.4685 16.9736 21.45C16.6727 21.4128 16.4282 21.2642 16.2025 21.06C15.4502 20.3171 14.679 19.5557 13.9267 18.8128C13.8703 18.7571 13.8703 18.7571 13.8139 18.8128C13.0427 19.5743 12.2904 20.3171 11.5193 21.0785C11.3876 21.2085 11.256 21.3014 11.0867 21.3757C10.9739 21.4314 10.8422 21.45 10.7294 21.4685C10.6541 21.4685 10.5789 21.4685 10.4849 21.4685C10.4472 21.4685 10.4284 21.45 10.3908 21.45C9.883 21.3571 9.54445 21.0785 9.39399 20.5957C9.24352 20.1128 9.35637 19.6857 9.71373 19.3328C10.0335 19.0171 10.3344 18.72 10.6541 18.4043C11.1243 17.94 11.5945 17.4757 12.0459 17.03C12.1023 16.9743 12.1023 16.9743 12.0271 16.9557C12.0083 16.9557 11.9707 16.9371 11.9519 16.9371C11.1055 16.7328 10.3344 16.3986 9.60088 15.9528C9.16829 15.6743 8.9614 15.2657 9.01783 14.7643C9.11187 13.8357 10.1651 13.3343 10.9551 13.8357C11.1055 13.9286 11.2372 14.0029 11.4064 14.0771C12.2716 14.5043 13.1932 14.69 14.1524 14.6343C14.6226 14.6157 15.0928 14.5228 15.563 14.3743C16.0144 14.2257 16.4094 14.0214 16.8232 13.7986C17.5003 13.4086 18.3842 13.7243 18.6475 14.4486C18.6852 14.56 18.704 14.6528 18.7228 14.7643C18.7228 14.82 18.7228 14.8757 18.7228 14.95Z"/>
</svg>
